<mxfile host="app.diagrams.net" modified="2020-08-09T18:09:33.356Z" agent="5.0 (Windows NT 10.0; Win64; x64) AppleWebKit/537.36 (KHTML, like Gecko) Chrome/84.0.4147.105 Safari/537.36" etag="nHgy1PyT22F6RWKn3l_m" version="13.6.1" type="github">
  <diagram id="hTgopM-qb_F_YAy0dBvl" name="Page-1">
    <mxGraphModel dx="1307" dy="482" grid="1" gridSize="10" guides="1" tooltips="1" connect="1" arrows="1" fold="1" page="1" pageScale="1" pageWidth="827" pageHeight="1169" math="0" shadow="0">
      <root>
        <mxCell id="0" />
        <mxCell id="1" parent="0" />
        <mxCell id="oS-nOc7x_ysIrexTYydT-8" value="" style="endArrow=classic;html=1;" edge="1" parent="1">
          <mxGeometry width="50" height="50" relative="1" as="geometry">
            <mxPoint x="380.5" y="260" as="sourcePoint" />
            <mxPoint x="380" y="200" as="targetPoint" />
          </mxGeometry>
        </mxCell>
        <mxCell id="oS-nOc7x_ysIrexTYydT-13" value="" style="group" vertex="1" connectable="0" parent="1">
          <mxGeometry x="200" y="360" width="480" height="60" as="geometry" />
        </mxCell>
        <mxCell id="oS-nOc7x_ysIrexTYydT-9" value="" style="whiteSpace=wrap;html=1;" vertex="1" parent="oS-nOc7x_ysIrexTYydT-13">
          <mxGeometry width="120" height="60" as="geometry" />
        </mxCell>
        <mxCell id="oS-nOc7x_ysIrexTYydT-10" value="" style="whiteSpace=wrap;html=1;" vertex="1" parent="oS-nOc7x_ysIrexTYydT-13">
          <mxGeometry x="120" width="120" height="60" as="geometry" />
        </mxCell>
        <mxCell id="oS-nOc7x_ysIrexTYydT-11" value="" style="whiteSpace=wrap;html=1;" vertex="1" parent="oS-nOc7x_ysIrexTYydT-13">
          <mxGeometry x="240" width="120" height="60" as="geometry" />
        </mxCell>
        <mxCell id="oS-nOc7x_ysIrexTYydT-12" value="" style="whiteSpace=wrap;html=1;" vertex="1" parent="oS-nOc7x_ysIrexTYydT-13">
          <mxGeometry x="360" width="120" height="60" as="geometry" />
        </mxCell>
        <mxCell id="oS-nOc7x_ysIrexTYydT-14" value="&lt;font style=&quot;font-size: 36px&quot;&gt;DP array&lt;/font&gt;" style="text;html=1;align=center;verticalAlign=middle;resizable=0;points=[];autosize=1;" vertex="1" parent="1">
          <mxGeometry x="20" y="370" width="160" height="30" as="geometry" />
        </mxCell>
        <mxCell id="oS-nOc7x_ysIrexTYydT-15" value="" style="group" vertex="1" connectable="0" parent="1">
          <mxGeometry x="320" y="140" width="360" height="60" as="geometry" />
        </mxCell>
        <mxCell id="oS-nOc7x_ysIrexTYydT-7" style="edgeStyle=orthogonalEdgeStyle;rounded=0;orthogonalLoop=1;jettySize=auto;html=1;exitX=0.5;exitY=1;exitDx=0;exitDy=0;" edge="1" parent="oS-nOc7x_ysIrexTYydT-15" source="oS-nOc7x_ysIrexTYydT-1">
          <mxGeometry relative="1" as="geometry">
            <mxPoint x="70" y="60" as="targetPoint" />
          </mxGeometry>
        </mxCell>
        <mxCell id="oS-nOc7x_ysIrexTYydT-1" value="&lt;font style=&quot;font-size: 24px&quot;&gt;2&lt;/font&gt;" style="whiteSpace=wrap;html=1;" vertex="1" parent="oS-nOc7x_ysIrexTYydT-15">
          <mxGeometry width="120" height="60" as="geometry" />
        </mxCell>
        <mxCell id="oS-nOc7x_ysIrexTYydT-2" value="&lt;font style=&quot;font-size: 24px&quot;&gt;2&lt;/font&gt;" style="whiteSpace=wrap;html=1;" vertex="1" parent="oS-nOc7x_ysIrexTYydT-15">
          <mxGeometry x="120" width="120" height="60" as="geometry" />
        </mxCell>
        <mxCell id="oS-nOc7x_ysIrexTYydT-3" value="&lt;font style=&quot;font-size: 24px&quot;&gt;6&lt;/font&gt;" style="whiteSpace=wrap;html=1;" vertex="1" parent="oS-nOc7x_ysIrexTYydT-15">
          <mxGeometry x="240" width="120" height="60" as="geometry" />
        </mxCell>
        <mxCell id="oS-nOc7x_ysIrexTYydT-16" value="&lt;font style=&quot;font-size: 24px&quot;&gt;Input array&lt;/font&gt;" style="text;html=1;align=center;verticalAlign=middle;resizable=0;points=[];autosize=1;" vertex="1" parent="1">
          <mxGeometry x="45" y="150" width="130" height="20" as="geometry" />
        </mxCell>
      </root>
    </mxGraphModel>
  </diagram>
</mxfile>
